<?xml version="1.0" standalone="no"?>
<!DOCTYPE svg PUBLIC "-//W3C//DTD SVG 20010904//EN"
 "http://www.w3.org/TR/2001/REC-SVG-20010904/DTD/svg10.dtd">
<svg version="1.0" xmlns="http://www.w3.org/2000/svg"
 width="500.000000pt" height="500.000000pt" viewBox="0 0 500.000000 500.000000"
 preserveAspectRatio="xMidYMid meet">
<metadata>
Created by potrace 1.16, written by Peter Selinger 2001-2019
</metadata>
<g transform="translate(0.000000,500.000000) scale(0.100000,-0.100000)"
fill="#000000" stroke="none">
<path d="M2338 4787 c-34 -29 -48 -58 -48 -102 0 -46 12 -69 62 -121 l39 -41
-51 -188 c-79 -287 -116 -383 -173 -443 -122 -128 -329 9 -514 342 l-54 97 31
35 c86 98 -22 230 -139 169 -82 -42 -57 -184 35 -201 18 -3 39 -13 47 -22 19
-23 51 -270 52 -397 0 -82 -4 -106 -20 -134 -32 -55 -69 -76 -129 -76 -63 1
-116 29 -201 107 -59 54 -64 69 -40 130 10 26 -45 78 -83 78 -44 0 -61 -9 -77
-41 -32 -61 -7 -103 85 -140 71 -28 84 -45 176 -231 l58 -117 25 14 c71 36
303 108 451 139 215 45 279 51 565 51 246 -1 295 -3 405 -23 207 -37 381 -88
572 -167 13 -5 24 6 49 57 17 34 59 107 92 160 55 88 65 99 111 119 28 11 61
30 74 42 28 26 29 75 1 111 -28 35 -86 36 -126 2 -27 -23 -27 -25 -16 -77 6
-30 8 -59 4 -65 -13 -24 -128 -115 -168 -134 -24 -11 -57 -20 -74 -20 -44 0
-106 38 -132 80 -20 31 -22 48 -21 150 1 105 26 337 40 374 3 8 30 22 60 31
41 12 57 22 69 45 30 58 11 135 -40 158 -57 26 -131 6 -153 -43 -18 -38 -15
-61 14 -126 l27 -59 -43 -72 c-110 -186 -227 -320 -322 -369 -53 -27 -115 -28
-159 -3 -41 24 -110 123 -139 201 -32 85 -120 413 -120 446 0 19 9 36 26 50
69 57 74 65 74 112 0 87 -47 135 -132 135 -30 0 -51 -7 -70 -23z"/>
<path d="M2175 3669 c-247 -26 -569 -104 -735 -178 l-39 -17 45 -98 c25 -54
42 -102 37 -106 -4 -4 -105 -26 -223 -49 -118 -23 -235 -49 -259 -58 -98 -36
-165 -131 -163 -233 0 -47 14 -87 100 -280 l100 -225 -141 -5 -141 -5 2 -285
c1 -157 2 -302 2 -322 l0 -38 280 0 280 0 16 -26 c13 -19 167 -100 565 -300
302 -150 565 -276 586 -280 36 -5 83 16 599 274 410 205 565 287 577 306 l17
26 285 0 285 0 -2 323 -3 322 -141 5 -140 5 99 225 c90 202 100 231 100 285 1
92 -53 175 -140 219 -17 9 -174 44 -348 80 -174 35 -318 66 -321 69 -3 3 10
44 29 90 l34 85 -26 12 c-110 51 -360 125 -521 154 -190 34 -499 45 -695 25z
m1087 -373 c399 -80 740 -152 756 -160 43 -22 92 -75 110 -116 33 -78 23 -118
-90 -376 l-104 -239 143 -3 143 -3 0 -304 0 -305 -274 0 -275 0 -21 -31 c-18
-24 -135 -87 -564 -301 -474 -238 -547 -271 -586 -271 -39 1 -122 39 -590 274
-343 173 -548 281 -555 294 -5 11 -14 23 -20 27 -5 4 -133 8 -282 8 l-273 0 0
305 0 304 144 3 143 3 -105 239 c-113 258 -122 298 -89 378 18 42 77 101 119
119 44 18 1444 297 1498 298 25 1 372 -64 772 -143z"/>
<path d="M2450 3393 c-117 -20 -1393 -276 -1418 -285 -41 -12 -98 -61 -118
-99 -28 -55 -18 -105 52 -264 131 -298 164 -377 164 -386 0 -5 -68 -9 -155 -9
l-155 0 0 -260 0 -260 273 0 274 0 24 -37 c21 -32 80 -64 549 -299 353 -177
536 -263 558 -263 23 -1 182 74 555 260 287 144 530 268 541 278 10 9 22 26
27 39 l9 22 275 0 275 0 0 260 0 260 -155 0 c-97 0 -155 4 -155 10 0 6 50 124
111 262 61 139 113 267 116 285 12 74 -29 153 -100 189 -31 16 -1465 305
-1501 303 -12 -1 -32 -4 -46 -6z m650 -1144 c0 -9 3 -31 6 -48 8 -40 -10 -41
-31 -1 -13 25 -22 30 -51 30 l-35 0 3 -132 c3 -127 4 -133 26 -143 40 -18 23
-25 -58 -25 -75 0 -105 11 -60 23 19 5 20 14 20 141 l0 136 -30 0 c-24 0 -35
-7 -48 -30 -9 -16 -20 -30 -24 -30 -8 0 -11 83 -4 91 2 2 68 4 145 4 124 0
141 -2 141 -16z m-1966 -100 c27 -60 50 -109 51 -107 2 2 24 51 50 111 l47
107 48 0 c57 0 70 -12 33 -29 -26 -12 -26 -13 -20 -94 4 -45 7 -104 7 -130 0
-40 3 -50 20 -54 44 -12 16 -23 -55 -23 -77 0 -90 6 -55 28 18 11 20 23 20
119 0 59 -4 103 -8 98 -5 -6 -30 -63 -57 -128 -26 -65 -53 -116 -58 -114 -6 2
-31 56 -56 120 -28 73 -48 112 -53 104 -4 -6 -8 -54 -8 -104 0 -90 1 -93 25
-99 46 -12 26 -24 -40 -24 -67 0 -81 8 -42 25 25 11 34 61 36 197 1 68 -1 77
-19 83 -37 12 -20 25 33 25 l53 0 48 -111z m490 73 c13 -46 -1 -52 -30 -14
-30 38 -77 44 -94 12 -18 -33 -2 -59 56 -91 63 -36 84 -62 84 -104 0 -66 -66
-111 -146 -99 -50 7 -60 16 -66 62 -6 46 6 48 31 7 27 -46 65 -61 97 -40 44
28 28 69 -45 114 -64 39 -85 70 -77 115 11 57 43 76 126 73 52 -2 55 -3 64
-35z m512 -73 l49 -112 37 84 c63 139 58 134 107 137 48 4 76 -12 42 -23 -20
-6 -21 -13 -21 -140 0 -125 1 -134 20 -140 42 -13 17 -25 -55 -25 -71 0 -99
11 -55 23 19 5 20 13 20 119 0 67 -4 107 -9 98 -5 -8 -30 -66 -56 -127 -26
-62 -51 -113 -55 -113 -5 0 -31 57 -58 126 l-50 127 -7 -74 c-10 -106 -5 -142
23 -154 37 -17 25 -25 -38 -25 -33 0 -60 3 -60 6 0 3 9 13 20 22 17 14 22 35
29 132 9 127 8 136 -20 145 -33 11 -10 25 40 25 l48 0 49 -111z m572 82 c44
-31 65 -75 65 -137 0 -153 -181 -228 -289 -120 -81 81 -63 214 36 268 49 27
143 21 188 -11z m692 11 c132 -66 106 -273 -38 -312 -114 -30 -215 47 -215
166 0 65 33 122 84 147 45 22 125 21 169 -1z m332 8 c72 -20 91 -91 37 -141
l-30 -28 32 -48 c17 -26 43 -60 57 -75 l26 -28 -31 0 c-55 0 -80 17 -115 77
-46 77 -68 82 -68 14 0 -40 4 -54 20 -63 35 -22 22 -28 -55 -28 -71 0 -99 11
-55 23 19 5 20 14 20 140 0 127 -1 136 -20 142 -11 3 -20 11 -20 16 0 12 156
11 202 -1z m340 -29 c12 -46 2 -51 -28 -13 -32 41 -79 45 -95 8 -16 -34 1 -58
65 -95 60 -34 76 -54 76 -99 0 -63 -72 -110 -150 -97 -45 8 -56 18 -62 63 -6
46 6 48 31 7 34 -59 99 -67 116 -15 9 29 -9 55 -64 89 -64 39 -85 70 -77 115
11 57 43 76 125 73 53 -2 55 -3 63 -36z"/>
<path d="M2557 2228 c-42 -33 -58 -129 -33 -201 22 -60 44 -78 90 -75 34 3 43
8 61 38 39 68 19 211 -34 240 -27 14 -64 13 -84 -2z"/>
<path d="M3256 2210 c-35 -42 -43 -109 -22 -177 20 -61 49 -86 97 -81 42 4 68
39 75 103 17 139 -79 238 -150 155z"/>
</g>
</svg>
